 <svg  version="1.0" xmlns="http://www.w3.org/2000/svg"  width="131.000000pt" height="143.000000pt" viewBox="0 0 131.000000 143.000000"  preserveAspectRatio="xMidYMid meet">  <g transform="translate(0.000000,143.000000) scale(0.100000,-0.100000)" fill="#259391" stroke="none"> <path d="M952 1111 c2 -56 4 -101 6 -101 2 0 12 5 23 10 23 13 25 40 3 40 -12 0 -15 12 -12 72 2 51 -1 72 -10 75 -10 4 -12 -17 -10 -96z"/> <path d="M1012 1140 c1 -73 6 -81 32 -54 20 20 20 34 1 34 -11 0 -15 12 -15 45 0 25 -4 45 -10 45 -5 0 -9 -30 -8 -70z"/> <path d="M1068 1170 l-4 -40 38 0 c21 0 38 5 38 10 0 6 -5 10 -11 10 -13 0 -39 25 -39 39 0 5 -4 12 -9 15 -5 3 -11 -12 -13 -34z"/> <path d="M1113 1195 c-3 -9 -3 -19 1 -22 7 -7 36 16 36 28 0 15 -30 10 -37 -6z"/> <path d="M844 1185 c-4 -9 -4 -70 -1 -134 5 -111 -1 -151 -23 -151 -6 0 -10 60 -10 145 0 94 -4 145 -10 145 -7 0 -10 -58 -9 -171 1 -145 3 -169 16 -165 8 3 17 6 19 6 2 0 4 6 4 14 0 32 28 38 165 37 87 -1 135 2 135 9 0 6 -43 10 -116 10 -151 0 -148 -3 -145 145 2 73 -1 115 -8 120 -6 3 -14 -1 -17 -10z"/> <path d="M898 1193 c-2 -5 -1 -46 2 -93 3 -51 8 -77 12 -65 6 17 11 112 9 153 -1 13 -18 17 -23 5z"/> <path d="M731 986 c0 -108 4 -196 8 -196 12 1 41 27 41 39 0 6 -7 11 -15 11 -13 0 -15 23 -13 167 2 128 0 167 -10 171 -10 3 -12 -36 -11 -192z"/> <path d="M679 975 c3 -216 0 -249 -27 -241 -13 4 -21 -2 -29 -24 -8 -20 -18 -30 -32 -30 -16 0 -21 -6 -21 -24 l0 -24 256 -1 c196 -1 255 1 252 10 -3 9 -62 12 -237 10 -190 -2 -232 0 -229 11 3 7 15 18 27 24 13 7 28 22 35 35 11 23 12 23 216 23 130 1 205 5 205 11 0 6 -68 10 -185 10 -166 0 -187 2 -203 18 -10 10 -16 24 -14 32 3 7 7 88 8 181 2 140 0 169 -12 172 -12 2 -13 -28 -10 -193z"/> <path d="M620 956 c0 -177 7 -234 24 -190 3 9 6 99 6 200 0 157 -2 184 -15 184 -13 0 -15 -28 -15 -194z"/> <path d="M570 915 c0 -143 4 -225 10 -225 6 0 10 82 10 225 0 143 -4 225 -10 225 -6 0 -10 -82 -10 -225z"/> <path d="M516 1123 c-7 -8 -7 -553 0 -553 3 0 14 5 25 10 23 13 25 40 4 40 -14 0 -16 31 -14 251 0 138 -1 252 -3 255 -3 2 -8 1 -12 -3z"/> <path d="M451 807 l2 -294 23 11 c26 12 32 34 12 41 -10 4 -12 65 -10 270 3 238 2 265 -13 265 -14 0 -16 -29 -14 -293z"/> <path d="M1088 1093 c-33 -9 -18 -24 20 -21 20 2 37 8 37 13 0 11 -31 16 -57 8z"/> <path d="M400 1073 c-5 -90 3 -530 10 -537 7 -7 11 84 12 247 1 141 2 265 2 274 1 9 -5 18 -11 21 -7 2 -13 0 -13 -5z"/> <path d="M344 1019 c3 -17 6 -148 6 -290 0 -166 4 -259 10 -259 6 0 10 103 10 290 0 261 -2 290 -16 290 -13 0 -15 -7 -10 -31z"/> <path d="M1063 1041 c-60 -10 -65 -21 -10 -23 26 -1 55 -2 65 -2 21 -1 23 28 2 30 -8 1 -34 -1 -57 -5z"/> <path d="M290 736 c0 -184 4 -286 10 -286 6 0 10 100 10 279 0 176 -4 282 -10 286 -7 4 -10 -92 -10 -279z"/> <path d="M901 984 c-12 -27 -6 -48 8 -26 5 9 36 12 112 10 63 -2 105 1 106 7 2 6 -33 10 -89 11 -61 0 -93 5 -96 12 -7 21 -28 13 -41 -14z"/> <path d="M237 974 c-4 -4 -7 -117 -7 -251 0 -191 3 -244 13 -241 9 4 13 63 15 243 2 218 -2 268 -21 249z"/> <path d="M179 923 c0 -4 -1 -95 -2 -200 -2 -166 0 -193 13 -193 13 0 15 28 14 197 -1 134 -5 198 -13 201 -6 2 -11 0 -12 -5z"/> <path d="M973 873 c-173 -5 -158 -23 18 -23 108 0 140 3 137 13 -5 14 1 14 -155 10z"/> <path d="M125 839 c-10 -26 -1 -234 10 -232 13 4 19 223 6 236 -7 7 -12 5 -16 -4z"/> <path d="M943 821 c-78 -4 -145 -9 -149 -13 -4 -5 51 -8 123 -8 72 0 145 -3 162 -6 27 -6 31 -4 31 15 0 11 -6 20 -12 19 -7 -1 -77 -4 -155 -7z"/> <path d="M680 700 c0 -6 75 -10 205 -10 130 0 205 4 205 10 0 6 -75 10 -205 10 -130 0 -205 -4 -205 -10z"/> <path d="M808 600 c-124 -3 -230 -8 -234 -12 -4 -5 -5 -8 -3 -8 2 0 111 -1 242 -1 131 -1 240 1 243 3 17 18 -48 22 -248 18z"/> <path d="M525 537 c-16 -10 30 -13 240 -17 245 -5 283 -2 269 22 -9 14 -486 9 -509 -5z"/> <path d="M400 480 c-10 -23 -17 -29 -31 -25 -12 4 -19 1 -19 -7 0 -8 -27 -40 -60 -73 -41 -41 -57 -62 -49 -70 7 -7 27 8 66 48 l56 59 314 -2 c210 0 313 3 313 10 0 7 -100 10 -300 10 -165 0 -300 4 -300 9 0 29 33 32 324 29 237 -2 296 0 296 10 0 10 -56 12 -280 10 -217 -2 -281 0 -285 10 -8 22 -32 13 -45 -18z"/> <path d="M663 382 c-225 -2 -273 -5 -273 -16 0 -12 48 -14 280 -14 229 0 280 2 280 13 0 8 -3 15 -7 17 -5 2 -131 2 -280 0z"/> <path d="M415 320 c-13 -21 33 -25 253 -25 208 0 242 2 242 15 0 13 -34 15 -246 15 -135 0 -247 -2 -249 -5z"/> <path d="M460 258 c0 -10 47 -13 200 -13 153 0 200 3 200 13 0 9 -47 12 -200 12 -153 0 -200 -3 -200 -12z"/> <path d="M535 200 c-4 -6 38 -10 119 -10 77 0 126 4 126 10 0 6 -46 10 -119 10 -69 0 -122 -4 -126 -10z"/> </g> </svg> 